<svg width="70" height="55" viewBox="0 0 70 55" xmlns="http://www.w3.org/2000/svg">
    <path d="M64.167 0H5.833C2.625 0 0 2.672 0 5.938v18.53h17.939l3.92-10.21c.448-1.165 1.595-1.928 2.791-1.887a2.926 2.926 0 0 1 2.694 2.031l5.546 16.98 5.985-14.495a2.918 2.918 0 0 1 2.581-1.815c1.17-.05 2.192.588 2.705 1.616l3.903 7.781h3.95c1.61 0 2.917 1.33 2.917 2.97 0 1.638-1.307 2.969-2.917 2.969h-5.738a2.912 2.912 0 0 1-2.596-1.62l-1.86-3.712-6.56 15.886a2.918 2.918 0 0 1-2.688 1.821c-.038 0-.076 0-.114-.003a2.92 2.92 0 0 1-2.655-2.03l-5.449-16.679-1.706 4.447a2.915 2.915 0 0 1-2.717 1.887H0v18.657C0 52.328 2.625 55 5.833 55h58.334C67.375 55 70 52.328 70 49.062V5.935C70 2.672 67.375 0 64.167 0z" fill="#09A4D8" fill-rule="nonzero"/>
</svg>
