<svg width="83" height="80" viewBox="0 0 83 80" xmlns="http://www.w3.org/2000/svg">
    <g transform="translate(1.038 1)" stroke-width="2" fill="none" fill-rule="evenodd" stroke-linecap="round" stroke-linejoin="round">
        <ellipse stroke="#0C488E" cx="59.656" cy="27.5" rx="21.269" ry="20.5"/>
        <path d="M69.513 21 59.177 33.994a2.728 2.728 0 0 1-1.95 1 2.777 2.777 0 0 1-2.081-.728L49.8 29.233" stroke="#08B3E3"/>
        <path d="M50.622 1.357A14.221 14.221 0 0 0 44.562 0c-5.693.002-10.983 2.846-14.007 7.529C27.53 2.846 22.238.002 16.545 0 7.409 0 0 8.77 0 19.893 0 31.93 3.975 39.61 9.057 44.531a49.972 49.972 0 0 0-3.968 19.866 52.833 52.833 0 0 0 1.146 11.019c.324 1.504 1.69 2.583 3.272 2.584 1.777-.003 3.268-1.3 3.465-3.015 1.397-12.324 8.732-21.704 17.587-21.704 8.854 0 16.203 9.387 17.586 21.704.197 1.714 1.688 3.012 3.465 3.015 1.582-.001 2.947-1.08 3.27-2.584a52.605 52.605 0 0 0 1.145-11.019c.001-3.514-.35-7.02-1.048-10.468" stroke="#08B3E3"/>
    </g>
</svg>
