<svg width="83" height="80" viewBox="0 0 83 80" xmlns="http://www.w3.org/2000/svg">
    <g transform="translate(1.038 3)" stroke-width="2" fill="none" fill-rule="evenodd" stroke-linecap="round" stroke-linejoin="round">
        <path stroke="#08B3E3" d="m59.845 0-2.782 14M20.75 0l2.783 14M59.745 74l-2.682-13M20.75 74l2.683-13"/>
        <path stroke="#0C488E" d="M40.462 4v3M40.462 14v3M40.462 24v3"/>
        <ellipse stroke="#0C488E" cx="40.981" cy="38.5" rx="1.556" ry="1.5"/>
        <path d="M29.908 11C16.796 14.565 5.977 23.51.326 35.457a3.253 3.253 0 0 0 0 2.838C3.014 43.873 14.505 64 40.462 64 66.42 64 77.912 43.87 80.6 38.292c.435-.9.435-1.939 0-2.838C74.95 23.507 64.13 14.564 51.017 11" stroke="#08B3E3"/>
        <path d="M26.803 22c-6.573 5.543-8.836 14.335-5.69 22.102C24.26 51.87 32.163 57 40.981 57c8.818 0 16.722-5.13 19.868-12.898 3.147-7.767.883-16.56-5.69-22.102" stroke="#0C488E"/>
        <path d="M31.87 34c-1.623 3.588-.53 7.787 2.657 10.195 3.185 2.407 7.648 2.407 10.834 0 3.186-2.408 4.28-6.607 2.657-10.195" stroke="#0C488E"/>
    </g>
</svg>
