<svg width="83" height="80" viewBox="0 0 83 80" xmlns="http://www.w3.org/2000/svg">
    <g stroke-width="2" fill="none" fill-rule="evenodd" stroke-linecap="round" stroke-linejoin="round">
        <path d="M1.038 47.696h20.23c.554 0 1.076-.254 1.408-.685l3.258-4.227c.342-.445.885-.7 1.456-.685.57.015 1.098.298 1.415.76l3.976 5.824c.348.507.947.796 1.573.758a1.762 1.762 0 0 0 1.464-.943l5.418-10.55a1.77 1.77 0 0 1 1.736-.94c.723.065 1.33.555 1.53 1.234l4.552 15.514c.199.68.806 1.17 1.528 1.236a1.77 1.77 0 0 0 1.737-.938l2.77-5.392c.297-.58.906-.948 1.572-.949h25.301" stroke="#0C488E"/>
        <path d="M73.445 41a37.872 37.872 0 0 0 4.368-16.567c0-25.866-32.679-27.884-36.832-1.982C36.828-3.45 4.15-1.433 4.15 26.421A37.207 37.207 0 0 0 7.346 41M15.563 55c7.025 8.297 15.337 15.608 24.673 21.7.65.423 1.527.396 2.145-.065C50.895 70.23 58.603 62.972 65.362 55" stroke="#08B3E3"/>
    </g>
</svg>
