<svg width="83" height="80" viewBox="0 0 83 80" xmlns="http://www.w3.org/2000/svg">
    <g transform="translate(5.188 1)" stroke-width="2" fill="none" fill-rule="evenodd" stroke-linecap="round" stroke-linejoin="round">
        <ellipse stroke="#0C488E" cx="62.769" cy="27.5" rx="10.894" ry="10.5"/>
        <path d="M10.582 3C4.738 3 0 7.477 0 13v13.333h0C0 35.538 7.897 43 17.637 43c9.741 0 17.638-7.462 17.638-16.667V13c0-5.523-4.738-10-10.582-10M17.637 44.667v26.666c0 3.682 3.145 6.667 7.024 6.667 3.878 0 7.023-2.985 7.023-6.667V52.107c0-4.603 3.93-8.334 8.778-8.334 4.849 0 8.78 3.731 8.78 8.334v12.56c0 3.682 3.144 6.666 7.022 6.666 3.88 0 7.023-2.984 7.023-6.666V38" stroke="#08B3E3"/>
        <path stroke="#0C488E" d="M11.412 0v9M24.9 0v9"/>
    </g>
</svg>
